<mxfile host="app.diagrams.net" modified="2020-07-20T10:33:54.479Z" agent="5.0 (Windows NT 10.0; Win64; x64) AppleWebKit/537.36 (KHTML, like Gecko) Chrome/80.0.3987.163 Safari/537.36" etag="nvtlQKSXl0lh_B7rak0R" version="13.4.8" type="github">
  <diagram id="C5RBs43oDa-KdzZeNtuy" name="Page-1">
    <mxGraphModel dx="873" dy="582" grid="1" gridSize="10" guides="1" tooltips="1" connect="1" arrows="1" fold="1" page="1" pageScale="1" pageWidth="827" pageHeight="1169" math="0" shadow="0">
      <root>
        <mxCell id="WIyWlLk6GJQsqaUBKTNV-0" />
        <mxCell id="WIyWlLk6GJQsqaUBKTNV-1" parent="WIyWlLk6GJQsqaUBKTNV-0" />
        <mxCell id="6fObZZFcRlx7szJT0v2M-2" value="" style="edgeStyle=orthogonalEdgeStyle;rounded=0;orthogonalLoop=1;jettySize=auto;html=1;" edge="1" parent="WIyWlLk6GJQsqaUBKTNV-1" source="KzAmsMi60-icw3bkNjwb-0" target="2">
          <mxGeometry relative="1" as="geometry" />
        </mxCell>
        <mxCell id="6fObZZFcRlx7szJT0v2M-29" style="edgeStyle=orthogonalEdgeStyle;rounded=0;orthogonalLoop=1;jettySize=auto;html=1;" edge="1" parent="WIyWlLk6GJQsqaUBKTNV-1" source="KzAmsMi60-icw3bkNjwb-0" target="6fObZZFcRlx7szJT0v2M-9">
          <mxGeometry relative="1" as="geometry" />
        </mxCell>
        <mxCell id="KzAmsMi60-icw3bkNjwb-0" value="t_benefits_product；加列" style="rounded=1;whiteSpace=wrap;html=1;" vertex="1" parent="WIyWlLk6GJQsqaUBKTNV-1">
          <mxGeometry x="90" y="70" width="120" height="60" as="geometry" />
        </mxCell>
        <mxCell id="6fObZZFcRlx7szJT0v2M-31" value="" style="edgeStyle=orthogonalEdgeStyle;rounded=0;orthogonalLoop=1;jettySize=auto;html=1;" edge="1" parent="WIyWlLk6GJQsqaUBKTNV-1" source="2" target="6fObZZFcRlx7szJT0v2M-30">
          <mxGeometry relative="1" as="geometry" />
        </mxCell>
        <mxCell id="2" value="改xml文件" style="rounded=1;whiteSpace=wrap;html=1;" vertex="1" parent="WIyWlLk6GJQsqaUBKTNV-1">
          <mxGeometry x="90" y="220" width="120" height="60" as="geometry" />
        </mxCell>
        <mxCell id="6fObZZFcRlx7szJT0v2M-9" value="" style="shape=table;html=1;whiteSpace=wrap;startSize=0;container=1;collapsible=0;childLayout=tableLayout;" vertex="1" parent="WIyWlLk6GJQsqaUBKTNV-1">
          <mxGeometry x="290" y="70" width="330" height="60" as="geometry" />
        </mxCell>
        <mxCell id="6fObZZFcRlx7szJT0v2M-14" value="" style="shape=partialRectangle;html=1;whiteSpace=wrap;collapsible=0;dropTarget=0;pointerEvents=0;fillColor=none;top=0;left=0;bottom=0;right=0;points=[[0,0.5],[1,0.5]];portConstraint=eastwest;" vertex="1" parent="6fObZZFcRlx7szJT0v2M-9">
          <mxGeometry width="330" height="30" as="geometry" />
        </mxCell>
        <mxCell id="6fObZZFcRlx7szJT0v2M-15" value="bp_unsubscribe_sms" style="shape=partialRectangle;html=1;whiteSpace=wrap;connectable=0;fillColor=none;top=0;left=0;bottom=0;right=0;overflow=hidden;" vertex="1" parent="6fObZZFcRlx7szJT0v2M-14">
          <mxGeometry width="152" height="30" as="geometry" />
        </mxCell>
        <mxCell id="6fObZZFcRlx7szJT0v2M-16" value="varchar(128)" style="shape=partialRectangle;html=1;whiteSpace=wrap;connectable=0;fillColor=none;top=0;left=0;bottom=0;right=0;overflow=hidden;" vertex="1" parent="6fObZZFcRlx7szJT0v2M-14">
          <mxGeometry x="152" width="76" height="30" as="geometry" />
        </mxCell>
        <mxCell id="6fObZZFcRlx7szJT0v2M-17" value="退订短信" style="shape=partialRectangle;html=1;whiteSpace=wrap;connectable=0;fillColor=none;top=0;left=0;bottom=0;right=0;overflow=hidden;" vertex="1" parent="6fObZZFcRlx7szJT0v2M-14">
          <mxGeometry x="228" width="102" height="30" as="geometry" />
        </mxCell>
        <mxCell id="6fObZZFcRlx7szJT0v2M-10" value="" style="shape=partialRectangle;html=1;whiteSpace=wrap;collapsible=0;dropTarget=0;pointerEvents=0;fillColor=none;top=0;left=0;bottom=0;right=0;points=[[0,0.5],[1,0.5]];portConstraint=eastwest;" vertex="1" parent="6fObZZFcRlx7szJT0v2M-9">
          <mxGeometry y="30" width="330" height="30" as="geometry" />
        </mxCell>
        <mxCell id="6fObZZFcRlx7szJT0v2M-11" value="bp_ordering_sms" style="shape=partialRectangle;html=1;whiteSpace=wrap;connectable=0;fillColor=none;top=0;left=0;bottom=0;right=0;overflow=hidden;" vertex="1" parent="6fObZZFcRlx7szJT0v2M-10">
          <mxGeometry width="152" height="30" as="geometry" />
        </mxCell>
        <mxCell id="6fObZZFcRlx7szJT0v2M-12" value="varchar(128)" style="shape=partialRectangle;html=1;whiteSpace=wrap;connectable=0;fillColor=none;top=0;left=0;bottom=0;right=0;overflow=hidden;" vertex="1" parent="6fObZZFcRlx7szJT0v2M-10">
          <mxGeometry x="152" width="76" height="30" as="geometry" />
        </mxCell>
        <mxCell id="6fObZZFcRlx7szJT0v2M-13" value="订购短信" style="shape=partialRectangle;html=1;whiteSpace=wrap;connectable=0;fillColor=none;top=0;left=0;bottom=0;right=0;overflow=hidden;" vertex="1" parent="6fObZZFcRlx7szJT0v2M-10">
          <mxGeometry x="228" width="102" height="30" as="geometry" />
        </mxCell>
        <mxCell id="6fObZZFcRlx7szJT0v2M-33" value="" style="edgeStyle=orthogonalEdgeStyle;rounded=0;orthogonalLoop=1;jettySize=auto;html=1;" edge="1" parent="WIyWlLk6GJQsqaUBKTNV-1" source="6fObZZFcRlx7szJT0v2M-30" target="6fObZZFcRlx7szJT0v2M-32">
          <mxGeometry relative="1" as="geometry" />
        </mxCell>
        <mxCell id="6fObZZFcRlx7szJT0v2M-30" value="放缓存" style="whiteSpace=wrap;html=1;rounded=1;" vertex="1" parent="WIyWlLk6GJQsqaUBKTNV-1">
          <mxGeometry x="90" y="360" width="120" height="60" as="geometry" />
        </mxCell>
        <mxCell id="6fObZZFcRlx7szJT0v2M-32" value="" style="whiteSpace=wrap;html=1;rounded=1;" vertex="1" parent="WIyWlLk6GJQsqaUBKTNV-1">
          <mxGeometry x="90" y="500" width="120" height="60" as="geometry" />
        </mxCell>
      </root>
    </mxGraphModel>
  </diagram>
</mxfile>
